<svg xmlns="http://www.w3.org/2000/svg" width="150" height="80" viewBox="0 0 150 80"><rect width="100%" height="100%" fill="#ffffff"/><path fill="#1e3a5f" d="M36.43 48.4h4.35q1.2 0 2.02-.29.81-.29 1.3-.77t.71-1.12q.21-.64.21-1.36 0-.75-.24-1.35t-.75-1.02q-.51-.43-1.32-.65t-1.94-.22h-4.34zm3.66-16.45h-3.66v6.69h3.42q2.21 0 3.34-.8t1.13-2.54q0-1.81-1.03-2.58-1.02-.77-3.2-.77m-7.96-3.33h7.96q2.28 0 3.89.44 1.62.43 2.65 1.23t1.51 1.93q.48 1.14.48 2.56 0 .82-.24 1.56-.24.75-.74 1.4-.51.64-1.28 1.17-.78.53-1.85.9 4.77 1.07 4.77 5.15 0 1.47-.56 2.72t-1.63 2.15q-1.08.91-2.64 1.42-1.57.51-3.59.51h-8.73zm20.57 6.72h3.97v16.42H52.7zm4.51-4.78q0 .51-.2.96-.21.45-.56.78-.34.34-.8.54-.47.2-1 .2-.51 0-.96-.2-.46-.2-.8-.54-.33-.33-.53-.78t-.2-.96q0-.53.2-.99.2-.47.53-.8.34-.34.8-.54.45-.2.96-.2.53 0 1 .2.46.2.8.54.35.33.56.8.2.46.2.99m14.4 6.56-.89 1.42q-.16.26-.34.36-.17.11-.45.11t-.61-.16-.76-.36-.99-.36q-.55-.16-1.3-.16-1.17 0-1.83.49-.67.5-.67 1.3 0 .53.35.89.34.36.91.63t1.29.49q.72.21 1.46.47.75.26 1.47.58.72.33 1.28.84.57.5.92 1.2.34.71.34 1.7 0 1.18-.42 2.18-.43 1-1.26 1.73t-2.06 1.14q-1.22.41-2.82.41-.85 0-1.66-.16-.8-.15-1.55-.42-.74-.27-1.37-.64-.64-.37-1.12-.8l.92-1.5q.17-.28.41-.42t.61-.14.7.2q.32.21.76.45.43.24 1.01.45.59.21 1.48.21.71 0 1.21-.17t.83-.44.48-.63.15-.75q0-.57-.34-.94t-.91-.64-1.3-.49q-.73-.21-1.49-.47t-1.48-.6q-.73-.34-1.3-.87t-.91-1.3q-.35-.77-.35-1.85 0-1.01.4-1.92.4-.92 1.18-1.6t1.94-1.08q1.16-.41 2.68-.41 1.69 0 3.08.56 1.4.56 2.32 1.47m14.07 0-.9 1.42q-.16.26-.33.36-.18.11-.45.11-.29 0-.62-.16t-.76-.36-.98-.36-1.31-.16q-1.16 0-1.83.49-.66.5-.66 1.3 0 .53.34.89.35.36.91.63.57.27 1.29.49.72.21 1.47.47.74.26 1.46.58.72.33 1.29.84.57.5.91 1.2.34.71.34 1.7 0 1.18-.42 2.18t-1.26 1.73q-.83.73-2.05 1.14-1.23.41-2.83.41-.84 0-1.65-.16-.81-.15-1.55-.42-.75-.27-1.38-.64T73.6 50l.91-1.5q.18-.28.42-.42t.6-.14q.37 0 .7.2.33.21.76.45t1.02.45q.58.21 1.48.21.7 0 1.2-.17.51-.17.84-.44.32-.27.48-.63.15-.36.15-.75 0-.57-.35-.94-.34-.37-.91-.64t-1.29-.49q-.73-.21-1.49-.47t-1.49-.6-1.3-.87q-.56-.53-.91-1.3-.34-.77-.34-1.85 0-1.01.4-1.92.4-.92 1.17-1.6.78-.68 1.94-1.08 1.16-.41 2.68-.41 1.7 0 3.09.56t2.32 1.47m6.27 4.54h7.46q0-.76-.22-1.44t-.65-1.2q-.43-.51-1.09-.8-.67-.3-1.55-.3-1.71 0-2.69.98-.99.97-1.26 2.76m10.08 2.39H91.87q.1 1.26.45 2.18t.93 1.52q.57.6 1.36.9.8.29 1.76.29t1.65-.22q.7-.22 1.22-.5.52-.27.91-.49.39-.23.76-.23.5 0 .74.37l1.13 1.44q-.65.77-1.47 1.29t-1.7.83q-.89.31-1.81.44t-1.79.13q-1.71 0-3.18-.57t-2.56-1.68T88.56 47q-.63-1.64-.63-3.8 0-1.68.55-3.16.54-1.48 1.56-2.58 1.01-1.09 2.48-1.73 1.46-.64 3.3-.64 1.55 0 2.87.49 1.31.5 2.25 1.45.95.95 1.48 2.34.54 1.38.54 3.16 0 .89-.19 1.21-.2.31-.74.31m3.94-16.07h3.95v23.78h-3.95zm7.95 0h3.95v23.78h-3.95z"/></svg>