<svg xmlns="http://www.w3.org/2000/svg" width="150" height="80" viewBox="0 0 150 80"><rect width="100%" height="100%" fill="#ffffff"/><path fill="#1e3a5f" d="M45.27 38.29q0 1.82-.61 3.35t-1.72 2.64q-1.1 1.1-2.65 1.71-1.56.61-3.45.61H30.5V29.97h6.34q1.89 0 3.45.62 1.55.61 2.65 1.71 1.11 1.1 1.72 2.63t.61 3.36m-3.18 0q0-1.37-.36-2.46t-1.05-1.84q-.68-.75-1.65-1.16-.97-.4-2.19-.4h-3.23v11.71h3.23q1.22 0 2.19-.4.97-.41 1.65-1.16.69-.75 1.05-1.84t.36-2.45m5.55-3.49h2.85v11.8h-2.85zm3.24-3.44q0 .37-.15.69t-.4.57q-.24.24-.58.38-.33.14-.71.14-.37 0-.7-.14-.32-.14-.57-.38-.24-.25-.38-.57-.15-.32-.15-.69 0-.38.15-.71.14-.33.38-.58.25-.24.57-.38.33-.14.7-.14.38 0 .71.14.34.14.58.38.25.25.4.58t.15.71m10.9 3.44h2.24l-4.68 11.8h-2.57l-4.68-11.8h2.34q.32 0 .54.15.21.15.28.38l2.28 6.3q.18.55.32 1.08t.24 1.06q.11-.53.25-1.06t.34-1.08l2.32-6.3q.08-.23.29-.38.2-.15.49-.15m5.99 4.54h5.36q0-.55-.15-1.04-.16-.49-.47-.85-.31-.37-.79-.58-.47-.22-1.11-.22-1.23 0-1.94.7-.7.71-.9 1.99m7.25 1.72h-7.31q.07.91.33 1.57.25.66.66 1.09.42.43.99.64.57.22 1.26.22t1.19-.17q.5-.16.87-.35.37-.2.66-.36.28-.16.54-.16.36 0 .53.27l.82 1.03q-.47.55-1.06.93-.59.37-1.23.59-.63.23-1.29.32-.67.09-1.29.09-1.23 0-2.29-.41-1.05-.4-1.84-1.2-.78-.8-1.23-1.98-.44-1.18-.44-2.73 0-1.21.39-2.27.39-1.07 1.12-1.86.73-.78 1.78-1.24t2.38-.46q1.11 0 2.05.35.95.36 1.63 1.04.67.69 1.06 1.68.38 1 .38 2.27 0 .65-.13.87-.14.23-.53.23m5.3-5.55.17 1.34q.55-1.06 1.31-1.66.76-.61 1.8-.61.81 0 1.31.36l-.19 2.13q-.05.2-.16.29t-.3.09q-.17 0-.51-.06t-.66-.06q-.47 0-.84.14t-.66.4q-.29.25-.52.62-.22.37-.42.84v7.27h-2.84V34.8h1.67q.44 0 .61.16.17.15.23.55m13.91.57-.64 1.02q-.12.19-.24.26-.13.07-.32.07-.21 0-.45-.11-.23-.12-.54-.26t-.71-.26q-.4-.11-.94-.11-.84 0-1.31.35-.48.36-.48.93 0 .38.25.64.24.26.65.46.41.19.93.35.51.15 1.05.34.53.18 1.05.42.52.23.93.6.41.36.65.86.25.51.25 1.22 0 .85-.3 1.57-.31.72-.91 1.24-.6.53-1.48.82-.87.29-2.02.29-.61 0-1.2-.11-.58-.1-1.11-.3-.54-.2-.99-.46t-.8-.57l.66-1.09q.12-.19.3-.3.17-.1.43-.1.27 0 .5.15.24.15.55.32.31.18.73.32.42.15 1.06.15.51 0 .87-.12t.6-.31q.24-.2.34-.46.11-.26.11-.53 0-.42-.24-.68-.25-.26-.66-.46t-.93-.35q-.52-.16-1.07-.34t-1.07-.43-.93-.63-.66-.93q-.24-.55-.24-1.33 0-.73.28-1.38.29-.66.85-1.15t1.39-.78 1.93-.29q1.22 0 2.22.4t1.66 1.06m4.51 3.26h5.36q0-.55-.15-1.04-.16-.49-.47-.85-.31-.37-.79-.58-.48-.22-1.11-.22-1.23 0-1.94.7-.7.71-.9 1.99m7.25 1.72h-7.31q.07.91.33 1.57.25.66.66 1.09.42.43.99.64.57.22 1.26.22t1.19-.17q.5-.16.87-.35.37-.2.66-.36.28-.16.54-.16.36 0 .53.27l.82 1.03q-.47.55-1.06.93-.59.37-1.23.59-.63.23-1.3.32-.66.09-1.28.09-1.23 0-2.29-.41-1.05-.4-1.84-1.2-.78-.8-1.23-1.98-.44-1.18-.44-2.73 0-1.21.39-2.27.39-1.07 1.12-1.86.73-.78 1.78-1.24t2.37-.46q1.12 0 2.06.35.95.36 1.62 1.04.68.69 1.07 1.68.38 1 .38 2.27 0 .65-.13.87-.14.23-.53.23m11.23-6.26h2.28l-6.43 15.04q-.13.3-.33.46-.2.15-.61.15h-2.12l2.21-4.74-4.77-10.91h2.49q.34 0 .53.16t.28.37l2.5 6.12q.13.31.22.62.08.31.16.63.11-.32.21-.64.1-.31.23-.62l2.37-6.11q.09-.23.3-.38.22-.15.48-.15"/></svg>