<svg xmlns="http://www.w3.org/2000/svg" width="150" height="80" viewBox="0 0 150 80"><rect width="100%" height="100%" fill="#ffffff"/><path fill="#1e3a5f" d="M46.985 27.345h4.72v25.31h-4.72v-11.06h-11.89v11.06h-4.72v-25.31h4.72v10.89h11.89zm22.82 12.62h8.4v10.24q-1.93 1.42-4.11 2.07-2.17.66-4.66.66-3.1 0-5.61-.96-2.51-.97-4.29-2.68-1.77-1.72-2.74-4.1-.96-2.38-.96-5.19 0-2.86.93-5.24t2.63-4.09q1.71-1.72 4.14-2.66 2.43-.95 5.46-.95 1.54 0 2.88.25 1.34.24 2.49.67 1.14.43 2.09 1.04.94.62 1.73 1.35l-1.35 2.14q-.31.5-.82.62-.51.11-1.1-.26l-1.16-.66q-.57-.33-1.28-.58-.71-.24-1.6-.4-.88-.16-2.03-.16-1.88 0-3.39.63t-2.58 1.8q-1.07 1.18-1.65 2.82-.58 1.65-.58 3.68 0 2.17.63 3.87.62 1.71 1.75 2.89t2.72 1.8 3.55.62q1.4 0 2.5-.29 1.1-.3 2.16-.81v-4.58h-3.19q-.45 0-.71-.26-.25-.25-.25-.62zm27.6-10.24-1.18 2.23q-.21.36-.44.53-.24.17-.59.17-.37 0-.8-.27-.42-.28-1.02-.61-.59-.33-1.39-.6t-1.88-.27q-.98 0-1.72.23-.73.24-1.23.66t-.74 1.01q-.25.58-.25 1.28 0 .89.5 1.49.5.59 1.32 1.01t1.87.76q1.05.33 2.16.71 1.1.37 2.15.87t1.87 1.26 1.32 1.86q.5 1.11.5 2.68 0 1.72-.59 3.21-.58 1.5-1.71 2.61t-2.76 1.75q-1.62.64-3.72.64-1.21 0-2.38-.24-1.18-.23-2.25-.67-1.08-.44-2.02-1.05-.95-.61-1.68-1.37l1.38-2.25q.17-.25.45-.41.28-.17.6-.17.44 0 .94.36.51.36 1.21.79.7.44 1.64.8.93.36 2.25.36 2.01 0 3.11-.95 1.1-.96 1.1-2.74 0-1-.5-1.63-.49-.63-1.32-1.06-.82-.43-1.87-.73-1.05-.29-2.13-.64-1.09-.35-2.14-.84t-1.87-1.28-1.32-1.97-.5-2.91q0-1.39.55-2.7t1.6-2.33q1.05-1.01 2.59-1.62 1.54-.62 3.54-.62 2.24 0 4.13.7t3.22 1.96m22.22-2.38v3.87h-7.63v21.44h-4.71v-21.44h-7.63v-3.87z"/></svg>