<svg xmlns="http://www.w3.org/2000/svg" width="150" height="80" viewBox="0 0 150 80"><rect width="100%" height="100%" fill="#ffffff"/><path fill="#1e3a5f" d="M41.14 25.54v28.92h-5.4V25.54zm23.2 2.72L63 30.8q-.24.42-.51.61t-.67.19q-.42 0-.91-.31t-1.17-.69-1.59-.69T56 29.6q-1.12 0-1.96.27t-1.41.75-.85 1.15-.28 1.47q0 1.02.57 1.7t1.51 1.16 2.14.86 2.46.81 2.46 1 2.14 1.44 1.51 2.13.57 3.06q0 1.96-.67 3.67t-1.96 2.98-3.15 2-4.26.73q-1.38 0-2.72-.27t-2.57-.77-2.31-1.2-1.92-1.56l1.58-2.58q.2-.28.52-.47t.68-.19q.5 0 1.08.41t1.38.91 1.87.91 2.57.41q2.3 0 3.56-1.09t1.26-3.13q0-1.14-.57-1.86t-1.51-1.21-2.14-.83-2.44-.74-2.44-.96-2.14-1.46-1.51-2.25-.57-3.33q0-1.58.63-3.08t1.83-2.66 2.96-1.86 4.04-.7q2.56 0 4.72.8t3.68 2.24m11.28 15.28h9.2l-3.52-9.62q-.26-.64-.54-1.52t-.56-1.9q-.26 1.02-.54 1.91t-.54 1.55zm7.34-18 11.36 28.92h-4.16q-.7 0-1.14-.35t-.66-.87l-2.16-5.9H74.22l-2.16 5.9q-.16.46-.62.84t-1.14.38h-4.2l11.38-28.92zm19.74 24.48h11.56v4.44H97.32V25.54h5.38z"/></svg>