<svg xmlns="http://www.w3.org/2000/svg" width="150" height="80" viewBox="0 0 150 80"><rect width="100%" height="100%" fill="#ffffff"/><path fill="#1e3a5f" d="M31.645 40.16h2.01q.74 0 1.29-.19.55-.18.91-.53.37-.34.55-.84.18-.49.18-1.1 0-.58-.18-1.05t-.54-.8-.91-.51q-.55-.17-1.3-.17h-2.01zm-2.69-7.27h4.7q1.45 0 2.51.34t1.75.95 1.02 1.46q.34.85.34 1.86 0 1.05-.35 1.93-.35.87-1.05 1.5t-1.76.98q-1.05.35-2.46.35h-2.01v5.09h-2.69zm16.53 4.04q1.14 0 2.07.37.94.37 1.6 1.05.67.68 1.03 1.66t.36 2.19q0 1.22-.36 2.2t-1.03 1.67q-.66.69-1.6 1.06-.93.37-2.07.37-1.15 0-2.09-.37t-1.61-1.06q-.66-.69-1.03-1.67-.36-.98-.36-2.2 0-1.21.36-2.19.37-.98 1.03-1.66.67-.68 1.61-1.05t2.09-.37m0 8.67q1.28 0 1.89-.86.62-.86.62-2.52t-.62-2.53q-.61-.87-1.89-.87-1.3 0-1.93.87-.62.88-.62 2.53t.62 2.51q.63.87 1.93.87m19.72-8.51h1.88l-3.26 10.26h-1.98q-.34 0-.47-.44l-1.84-5.93q-.09-.3-.17-.59-.07-.3-.12-.6-.06.3-.14.6-.07.31-.16.61l-1.87 5.91q-.12.44-.53.44h-1.9l-3.25-10.26h1.97q.27 0 .46.13t.25.33l1.47 5.48q.11.45.19.88.09.43.15.86.11-.43.23-.86.13-.43.27-.88l1.7-5.5q.06-.2.23-.33.18-.13.43-.13h1.09q.26 0 .44.13.19.13.25.33l1.65 5.5q.13.45.24.88.12.44.23.87.13-.85.37-1.75l1.51-5.48q.07-.2.25-.33t.43-.13m5.46.62.15 1.16q.48-.92 1.14-1.45.66-.52 1.56-.52.71 0 1.14.31l-.16 1.85q-.05.18-.15.25-.09.08-.25.08-.15 0-.45-.05-.29-.05-.57-.05-.41 0-.73.12t-.58.35q-.25.22-.45.54-.19.32-.36.73v6.32h-2.47V37.09h1.45q.38 0 .53.13.15.14.2.49m5.2 4.63v-2.06h5.18v2.06zm17.05-7.31h-6.42v4.28h5.42v2.15h-5.42v5.89h-2.7V32.89h9.12zm1.84-2.54h2.47v14.86h-2.47zm5.02 4.6h2.48v10.26h-2.48zm2.82-2.99q0 .32-.13.6t-.35.49q-.21.21-.5.33-.29.13-.62.13-.32 0-.61-.13-.28-.12-.49-.33t-.34-.49q-.12-.28-.12-.6 0-.33.12-.62.13-.29.34-.5t.49-.34q.29-.12.61-.12.33 0 .62.12.29.13.5.34.22.21.35.5t.13.62m5.6 13.41q-1.34 0-2.06-.75-.71-.76-.71-2.09v-5.73h-1.05q-.2 0-.34-.13t-.14-.39v-.98l1.65-.27.52-2.8q.05-.2.19-.31t.36-.11h1.28v3.23h2.74v1.76h-2.74v5.56q0 .48.23.75.24.27.65.27.23 0 .38-.06.16-.05.27-.11.12-.06.21-.12.09-.05.18-.05.11 0 .18.05.07.06.15.17l.74 1.2q-.54.45-1.24.68t-1.45.23m5.97-6.47h4.66q0-.48-.14-.9-.13-.43-.4-.75t-.69-.5q-.41-.19-.96-.19-1.07 0-1.69.61-.61.61-.78 1.73m6.3 1.49h-6.35q.06.79.28 1.36.22.58.58.96.36.37.85.55.5.19 1.1.19t1.03-.14q.44-.14.76-.31.33-.17.57-.31.25-.14.48-.14.31 0 .46.23l.71.9q-.41.48-.92.81-.51.32-1.07.51-.55.2-1.13.28-.57.08-1.11.08-1.07 0-1.99-.36-.92-.35-1.6-1.05-.68-.69-1.07-1.72-.39-1.02-.39-2.37 0-1.05.34-1.98.34-.92.97-1.61.64-.68 1.55-1.08.92-.4 2.07-.4.97 0 1.79.31t1.41.9q.59.6.92 1.46.34.87.34 1.98 0 .56-.12.76-.12.19-.46.19"/></svg>