<svg xmlns="http://www.w3.org/2000/svg" width="150" height="80" viewBox="0 0 150 80"><rect width="100%" height="100%" fill="#ffffff"/><path fill="#1e3a5f" d="M34.205 39.53h2.27q1.03 0 1.79-.26t1.26-.71q.49-.45.73-1.07t.24-1.36q0-1.49-.97-2.29-.98-.79-2.99-.79h-2.33zm6.73 3.02 4.88 7.21h-3.28q-.93 0-1.35-.73l-4.1-6.25q-.23-.35-.51-.5-.27-.15-.81-.15h-1.56v7.63h-3.63V30.24h5.96q1.98 0 3.4.41 1.43.41 2.34 1.16.91.74 1.34 1.77.44 1.03.44 2.28 0 .98-.29 1.86-.3.88-.84 1.59-.55.72-1.35 1.26-.81.54-1.83.85.35.2.65.48.29.27.54.65M66.555 40q0 2.15-.71 3.98-.71 1.82-2 3.16-1.3 1.34-3.12 2.09t-4.05.75q-2.22 0-4.04-.75t-3.12-2.09q-1.31-1.34-2.02-3.16-.72-1.83-.72-3.98t.72-3.98q.71-1.83 2.02-3.16 1.3-1.34 3.12-2.09t4.04-.75q1.48 0 2.79.35 1.31.34 2.41.97 1.09.63 1.96 1.52.87.9 1.48 2.01t.92 2.4q.32 1.3.32 2.73m-3.71 0q0-1.61-.43-2.88-.44-1.28-1.23-2.17-.8-.89-1.94-1.36-1.14-.48-2.57-.48t-2.57.48q-1.14.47-1.95 1.36-.8.89-1.23 2.17-.44 1.27-.44 2.88t.44 2.88q.43 1.28 1.23 2.16.81.89 1.95 1.36t2.57.47 2.57-.47 1.94-1.36q.79-.88 1.23-2.16.43-1.27.43-2.88m25.53 0q0 2.15-.71 3.98-.71 1.82-2.01 3.16-1.29 1.34-3.12 2.09-1.82.75-4.05.75-2.21 0-4.03-.75-1.83-.75-3.13-2.09t-2.02-3.16q-.71-1.83-.71-3.98t.71-3.98q.72-1.83 2.02-3.16 1.3-1.34 3.13-2.09 1.82-.75 4.03-.75 1.49 0 2.8.35 1.31.34 2.4.97t1.97 1.52q.87.9 1.47 2.01.61 1.11.93 2.4.32 1.3.32 2.73m-3.72 0q0-1.61-.43-2.88-.43-1.28-1.23-2.17-.79-.89-1.93-1.36-1.15-.48-2.58-.48t-2.57.48q-1.14.47-1.94 1.36-.81.89-1.24 2.17-.43 1.27-.43 2.88t.43 2.88q.43 1.28 1.24 2.16.8.89 1.94 1.36t2.57.47 2.58-.47q1.14-.47 1.93-1.36.8-.88 1.23-2.16.43-1.27.43-2.88m20.55-9.76v2.98h-5.89v16.54h-3.63V33.22h-5.88v-2.98zm13.86 1.84-.9 1.71q-.16.28-.34.41-.19.13-.46.13-.28 0-.61-.21t-.79-.47q-.46-.25-1.07-.46-.62-.21-1.45-.21-.76 0-1.33.18-.56.18-.95.51-.38.32-.57.77-.19.46-.19 1 0 .69.38 1.14.39.46 1.02.79.64.32 1.45.58.81.25 1.66.54t1.66.68q.81.38 1.44.97.64.59 1.02 1.44.39.85.39 2.06 0 1.33-.46 2.48-.45 1.16-1.32 2.01-.87.86-2.13 1.35-1.25.5-2.87.5-.93 0-1.84-.19-.9-.18-1.73-.52-.83-.33-1.56-.81-.73-.47-1.3-1.05l1.07-1.74q.13-.19.35-.32t.46-.13q.34 0 .73.28t.93.61q.54.34 1.26.62t1.74.28q1.55 0 2.4-.74t.85-2.11q0-.77-.38-1.26-.39-.48-1.02-.81-.64-.34-1.45-.56-.81-.23-1.65-.5-.83-.27-1.64-.65t-1.45-.99q-.63-.61-1.02-1.52-.38-.91-.38-2.24 0-1.07.42-2.08.43-1.02 1.24-1.8t2-1.25q1.19-.48 2.72-.48 1.73 0 3.19.54t2.48 1.52"/></svg>