<svg xmlns="http://www.w3.org/2000/svg" width="150" height="80" viewBox="0 0 150 80"><rect width="100%" height="100%" fill="#ffffff"/><path fill="#1e3a5f" d="M57.86 25.54v4.42h-8.72v24.5h-5.38v-24.5h-8.72v-4.42zm20.54 2.72-1.34 2.54q-.24.42-.51.61t-.67.19q-.42 0-.91-.31t-1.17-.69-1.59-.69-2.15-.31q-1.12 0-1.96.27t-1.41.75-.85 1.15-.28 1.47q0 1.02.57 1.7t1.51 1.16 2.14.86 2.46.81 2.46 1 2.14 1.44 1.51 2.13.57 3.06q0 1.96-.67 3.67t-1.96 2.98-3.15 2-4.26.73q-1.38 0-2.72-.27t-2.57-.77-2.31-1.2-1.92-1.56l1.58-2.58q.2-.28.52-.47t.68-.19q.5 0 1.08.41t1.38.91 1.87.91 2.57.41q2.3 0 3.56-1.09t1.26-3.13q0-1.14-.57-1.86t-1.51-1.21-2.14-.83-2.44-.74-2.44-.96-2.14-1.46-1.51-2.25-.57-3.33q0-1.58.63-3.08T63 27.78t2.96-1.86 4.04-.7q2.56 0 4.72.8t3.68 2.24m32.5-2.72h4.06v28.92h-4.74V35.78q0-1.12.12-2.42l-8.74 16.42q-.62 1.18-1.9 1.18h-.76q-1.28 0-1.9-1.18L88.2 33.3q.06.66.1 1.3t.04 1.18v18.68H83.6V25.54h4.06q.36 0 .62.02t.47.1.38.26.33.48l8.66 16.06q.34.64.63 1.32t.57 1.4q.28-.74.58-1.43t.64-1.33l8.54-16.02q.16-.3.34-.48t.39-.26.47-.1.62-.02"/></svg>